<svg preserveAspectRatio="none" width="100%" height="100%" overflow="visible" style="display: block;" viewBox="0 0 48.8569 88.5214" fill="none" xmlns="http://www.w3.org/2000/svg">
<g id="OBJECTS" clip-path="url(#clip0_1410_2313)">
<path id="Vector" d="M9.71803 29.5097C14.6821 29.3965 19.5492 27.9413 24.5295 28.3051C25.3461 28.3617 25.3461 27.0923 24.5295 27.0277C19.5492 26.6638 14.6821 28.1191 9.71803 28.2323C8.90145 28.2485 8.89337 29.5259 9.71803 29.5097Z" fill="var(--fill-0, #D0CAA8)"/>
<path id="Vector_2" d="M9.64525 28.8792C9.08739 31.3532 8.63464 33.9969 9.37845 36.4871C9.9929 38.5326 11.3512 40.3032 13.3805 41.0631C17.8918 42.7529 22.5245 39.1147 24.2951 35.1612C24.8125 34.0131 25.144 32.8085 25.2895 31.5634C25.3623 30.9409 25.3865 30.3102 25.3542 29.6796C25.3137 28.8711 25.1682 28.0788 25.3946 27.2865C25.621 26.4942 24.3921 26.1627 24.1657 26.9469C23.7857 28.2567 24.1657 29.6311 24.0687 30.9732C23.9878 32.1859 23.6806 33.4067 23.1874 34.5144C22.1526 36.8428 20.2364 38.9611 17.7867 39.8181C15.337 40.6751 12.483 39.9151 11.149 37.4815C9.81503 35.048 10.2597 31.903 10.8661 29.2107C11.0439 28.4103 9.81503 28.0707 9.63717 28.8711L9.64525 28.8792Z" fill="var(--fill-0, #D0CAA8)"/>
<path id="Vector_3" d="M25.71 30.9004C25.8959 30.7791 26.0819 30.6659 26.2921 30.577L26.1385 30.6417C26.2597 30.5932 26.381 30.5608 26.5023 30.5366L26.3325 30.5608C26.4376 30.5446 26.5346 30.5446 26.6397 30.5608L26.4699 30.5366C26.5427 30.5446 26.6155 30.5689 26.6882 30.5932L26.5346 30.5285C26.5831 30.5446 26.6235 30.5689 26.6721 30.6012C26.955 30.7791 27.3916 30.6659 27.5452 30.3749C27.715 30.0596 27.618 29.6957 27.3188 29.5017C26.9469 29.2672 26.4861 29.2349 26.0657 29.3319C25.71 29.4128 25.3785 29.6068 25.0712 29.8008C24.9338 29.8898 24.8206 30.0191 24.7802 30.1808C24.7398 30.3425 24.7559 30.5366 24.8449 30.674C25.0308 30.957 25.4189 31.0944 25.718 30.9004H25.71Z" fill="var(--fill-0, #D0CAA8)"/>
<path id="Vector_4" d="M27.0116 27.812C26.8661 29.2026 26.7206 30.5932 26.4699 31.9676C26.2516 33.1884 25.9525 34.4092 26.1384 35.6543C26.4376 37.6755 27.9899 39.3572 29.8171 40.1576C32.0081 41.1116 34.7003 41.0227 36.9398 40.2303C37.9585 39.8665 38.8155 39.3087 39.4785 38.4517C40.1415 37.5947 40.8206 36.6083 41.0793 35.5411C41.4027 34.2152 41.3138 32.6952 41.3218 31.337C41.3299 29.9787 41.1763 28.7175 40.6023 27.5047C40.2466 26.769 39.147 27.4077 39.5027 28.1515C40.3678 29.9464 40.0525 32.1859 39.9798 34.1101C39.907 36.0343 38.6296 38.1929 36.8105 38.9206C34.9914 39.6482 32.574 39.8261 30.6579 39.1227C29.0167 38.5163 27.5614 37.0691 27.3673 35.2662C27.238 34.0131 27.6341 32.7518 27.8282 31.5229C28.0222 30.294 28.1516 29.0489 28.2809 27.8039C28.3699 26.9873 27.0925 26.9954 27.0035 27.8039L27.0116 27.812Z" fill="var(--fill-0, #D0CAA8)"/>
<path id="Vector_5" d="M28.0626 28.3538C31.8383 27.6423 35.7352 27.5777 39.5351 28.1679C40.3355 28.2891 40.6831 27.0602 39.8746 26.9389C35.8322 26.3083 31.7413 26.373 27.7231 27.1249C26.9146 27.2785 27.2622 28.5074 28.0626 28.3538Z" fill="var(--fill-0, #D0CAA8)"/>
<path id="Vector_6" d="M31.1996 31.9759C30.9732 31.8627 30.6983 31.8384 30.48 31.9759C30.3021 32.0891 30.1809 32.2507 30.1162 32.4529C30.0515 32.655 30.0192 32.8652 29.9949 33.0673C29.9464 33.4392 29.9464 33.8516 30.1324 34.183C30.286 34.466 30.5689 34.6277 30.8843 34.6439C31.1591 34.66 31.4259 34.5226 31.62 34.3447C31.903 34.0779 32.0404 33.6494 32.0242 33.2694C32.0081 32.849 31.8383 32.4205 31.523 32.1376C31.3936 32.0244 31.2481 31.9516 31.0702 31.9516C30.9166 31.9516 30.7306 32.0244 30.6175 32.1376C30.5043 32.2507 30.4234 32.4205 30.4315 32.5903C30.4396 32.7601 30.4881 32.9299 30.6175 33.0431C30.6579 33.0835 30.6983 33.1158 30.7306 33.1643L30.6336 33.035C30.6821 33.0997 30.7226 33.1724 30.7549 33.2452L30.6902 33.0916C30.7226 33.1724 30.7468 33.2614 30.763 33.3503L30.7387 33.1805C30.7468 33.2694 30.7468 33.3584 30.7387 33.4473L30.763 33.2775C30.7549 33.3503 30.7306 33.4231 30.7064 33.4958L30.7711 33.3422C30.7468 33.3988 30.7145 33.4554 30.6741 33.5039L30.7711 33.3745C30.7711 33.3745 30.7145 33.4392 30.6741 33.4716L30.8034 33.3745C30.8034 33.3745 30.7306 33.4231 30.6902 33.4392L30.8438 33.3745C30.8438 33.3745 30.7953 33.3907 30.763 33.3907L30.9328 33.3665C30.9328 33.3665 30.8923 33.3665 30.8762 33.3665L31.046 33.3907C31.046 33.3907 31.0055 33.3826 30.9894 33.3745L31.143 33.4392C31.143 33.4392 31.0945 33.415 31.0783 33.3988L31.2077 33.4958C31.2077 33.4958 31.1753 33.4635 31.1591 33.4392L31.2562 33.5686C31.2562 33.5686 31.2238 33.512 31.2077 33.4877L31.2723 33.6413C31.2481 33.5848 31.24 33.5282 31.2319 33.4635L31.2562 33.6333C31.2319 33.4473 31.2481 33.2533 31.2642 33.0592L31.24 33.229C31.2642 33.0754 31.2885 32.9218 31.337 32.7844L31.2723 32.938C31.2723 32.938 31.2885 32.8975 31.3047 32.8814L31.2077 33.0107C31.2077 33.0107 31.2319 32.9784 31.2481 32.9703L31.1187 33.0673H31.1349C31.0864 33.0835 31.0298 33.0997 30.9813 33.1239H30.9974C30.9409 33.1239 30.8843 33.132 30.8277 33.1401H30.8438C30.7872 33.132 30.7306 33.1239 30.6741 33.1158H30.6902C30.6417 33.0997 30.5851 33.0754 30.5366 33.0512H30.5528C30.7064 33.1401 30.8762 33.1724 31.046 33.1239C31.1915 33.0835 31.3532 32.9703 31.4259 32.8329C31.5068 32.6873 31.5472 32.5095 31.4906 32.3397C31.4421 32.1861 31.3451 32.0325 31.1996 31.9597V31.9759Z" fill="var(--fill-0, #D0CAA8)"/>
<path id="Vector_7" d="M18.9348 32.8327C18.8782 32.9783 18.8378 33.1319 18.8136 33.2855C18.7812 33.4876 18.765 33.6897 18.7893 33.8999C18.8136 34.1425 18.8459 34.3446 18.9591 34.571C19.0965 34.8459 19.4038 35.0399 19.711 35.0399C19.9939 35.0399 20.2446 34.9105 20.4548 34.7246C20.6165 34.5791 20.7216 34.385 20.7944 34.1829C20.8671 33.9808 20.8671 33.7463 20.8267 33.5361C20.7863 33.3259 20.6731 33.14 20.5437 32.9783C20.3982 32.8004 20.188 32.6872 19.9778 32.6144C19.7676 32.5417 19.5089 32.5417 19.2825 32.5902C19.1289 32.6225 18.9833 32.7519 18.9025 32.8812C18.8216 33.0106 18.7893 33.2208 18.8378 33.3744C18.951 33.714 19.2744 33.8999 19.622 33.8191C19.6382 33.8191 19.6625 33.8191 19.6786 33.811L19.5089 33.8353C19.5655 33.8353 19.622 33.8353 19.6786 33.8353L19.5089 33.811C19.5655 33.8191 19.614 33.8353 19.6706 33.8514L19.5169 33.7868C19.5735 33.811 19.6301 33.8433 19.6786 33.8838L19.5493 33.7868C19.5493 33.7868 19.622 33.8514 19.6544 33.8919L19.5574 33.7625C19.5574 33.7625 19.614 33.8433 19.6301 33.8919L19.5655 33.7382C19.5816 33.7868 19.5978 33.8353 19.6059 33.8838L19.5816 33.714C19.5816 33.7706 19.5816 33.8272 19.5816 33.8838L19.6059 33.714C19.5978 33.7787 19.5816 33.8353 19.5574 33.8919L19.622 33.7382C19.5978 33.7868 19.5735 33.8353 19.5331 33.8838L19.6301 33.7544C19.6301 33.7544 19.5655 33.8272 19.525 33.8595L19.6544 33.7625C19.614 33.7948 19.5735 33.8191 19.525 33.8433L19.6786 33.7787C19.6786 33.7787 19.622 33.7948 19.5897 33.8029L19.7595 33.7787C19.7595 33.7787 19.7191 33.7787 19.6948 33.7787L19.8646 33.8029C19.8646 33.8029 19.8242 33.7948 19.808 33.7868L19.9616 33.8514C19.9616 33.8514 19.9293 33.8353 19.9212 33.8272L20.0505 33.9242C20.0505 33.9242 20.0263 33.8999 20.0101 33.8838L20.1071 34.0131C20.1071 34.0131 20.0667 33.9484 20.0505 33.9161L20.1152 34.0697C20.0829 33.9808 20.0667 33.8919 20.0505 33.7948L20.0748 33.9646C20.0505 33.8029 20.0505 33.6331 20.0748 33.4714L20.0505 33.6412C20.0748 33.4876 20.1071 33.334 20.1718 33.1885C20.2365 33.0429 20.1799 32.8246 20.1071 32.6953C20.0344 32.5659 19.8808 32.4366 19.7271 32.4042C19.5655 32.3638 19.3795 32.3719 19.234 32.4689L19.1046 32.5659C19.0238 32.6468 18.9672 32.7357 18.9429 32.8489L18.9348 32.8327Z" fill="var(--fill-0, #D0CAA8)"/>
<path id="Vector_8" d="M24.4568 41.8716C24.8529 41.5805 25.2087 41.249 25.5725 40.9256C25.8716 40.6588 26.1869 40.3839 26.5588 40.2303C26.7205 40.1656 26.8984 40.1171 27.0682 40.109C27.1975 40.109 27.335 40.1333 27.4078 40.1576C27.4482 40.1737 27.6018 40.2707 27.5775 40.2546C27.6099 40.2788 27.7392 40.4244 27.715 40.3839C27.715 40.3839 27.8039 40.5537 27.7716 40.481C27.7877 40.5214 27.7958 40.5699 27.8039 40.6184C27.7958 40.5618 27.7877 40.578 27.7958 40.6588C27.7554 40.9337 27.4482 41.249 27.238 41.4754C26.9469 41.7988 26.6478 42.1141 26.3325 42.4132C25.6776 43.0439 24.9823 43.626 24.2385 44.1515C23.9555 44.3536 23.8261 44.7093 24.0121 45.0247C24.1738 45.2995 24.6023 45.4532 24.8853 45.251C25.5967 44.7417 26.284 44.1919 26.9307 43.6017C27.5775 43.0115 28.2162 42.389 28.7094 41.6856C29.2026 40.9822 29.1864 40.0201 28.5315 39.4057C27.8767 38.7912 26.9712 38.7023 26.1708 39.0257C25.2167 39.4057 24.6185 40.198 23.81 40.7882C23.5351 40.9903 23.3976 41.3379 23.5836 41.6613C23.7453 41.9362 24.1738 42.0979 24.4568 41.8877V41.8716Z" fill="var(--fill-0, #D0CAA8)"/>
<path id="Vector_9" d="M26.381 38.7347C26.3405 38.6942 26.3001 38.6457 26.2597 38.6053C26.1627 38.5002 26.3244 38.7185 26.2516 38.5891C26.2112 38.5325 26.098 38.387 26.098 38.3142C26.1303 38.3951 26.1384 38.4032 26.1061 38.3385C26.098 38.3142 26.0818 38.2819 26.0737 38.2496C26.0576 38.2091 26.0495 38.1606 26.0333 38.1202C26.0171 38.0717 26.0091 38.0151 25.9929 37.9666C25.9848 37.9181 25.9282 37.7645 25.9848 37.9343C25.9525 37.8292 25.9605 37.6755 25.9605 37.5704C25.9605 37.4411 25.9605 37.3117 25.9767 37.1824C25.9767 37.1258 25.9848 37.0692 25.9929 37.0207C25.9929 36.9964 26.0252 36.7539 26.001 36.9156C26.0171 36.7862 26.0414 36.6568 26.0576 36.5356C26.0818 36.3577 26.0899 36.2041 25.9929 36.0424C25.912 35.913 25.7665 35.7837 25.6129 35.7513C25.3057 35.6786 24.8853 35.8403 24.8287 36.196C24.7316 36.8509 24.6346 37.4977 24.7397 38.1525C24.8206 38.7023 25.0712 39.244 25.4755 39.6321C25.718 39.8665 26.1384 39.8908 26.381 39.6321C26.6235 39.3734 26.6397 38.9772 26.381 38.7266V38.7347Z" fill="var(--fill-0, #D0CAA8)"/>
<path id="Vector_10" d="M12.7013 22.7103C11.998 23.0256 11.8767 23.8664 12.0222 24.5294C12.095 24.8851 12.2567 25.2166 12.5639 25.4349C12.8145 25.6127 13.1137 25.6613 13.4128 25.7098C14.7145 25.9038 16.0081 25.7098 17.2046 25.1681C17.5199 25.0226 17.5927 24.5698 17.431 24.2949C17.245 23.9715 16.8731 23.923 16.5578 24.0685C15.8059 24.4081 14.957 24.5536 14.1 24.5051C13.8817 24.497 13.7524 24.4809 13.5583 24.4485C13.4613 24.4324 13.3643 24.4162 13.2673 24.3838C13.3886 24.4243 13.2026 24.3838 13.2673 24.3838C13.2754 24.3838 13.2915 24.4 13.2996 24.4081C13.3158 24.4324 13.3158 24.4243 13.2996 24.3919C13.2835 24.3515 13.2754 24.3515 13.2996 24.3919L13.2835 24.3273C13.2754 24.2787 13.2592 24.2383 13.2511 24.1898C13.2349 24.117 13.2269 24.0605 13.2349 23.9473C13.243 23.8502 13.2026 24.0119 13.2511 23.8745C13.2269 23.9392 13.2349 23.8907 13.2592 23.8583C13.2915 23.8179 13.3158 23.8098 13.2754 23.8422C13.1945 23.9068 13.332 23.8179 13.3481 23.8098C13.6634 23.6724 13.7362 23.2115 13.5745 22.9367C13.3886 22.6133 13.0167 22.5647 12.7013 22.7103Z" fill="var(--fill-0, #D0CAA8)"/>
<path id="Vector_11" d="M13.429 23.8989C15.7898 22.0879 18.4739 20.1637 21.5381 19.9454C21.7241 19.9293 21.9019 19.9293 22.0879 19.9212C22.29 19.9212 22.2334 19.8969 22.2496 19.9858C22.2981 20.2122 21.7726 20.6165 21.6432 20.7458C21.1015 21.2552 20.5194 21.7079 19.8888 22.1122C18.6033 22.9287 17.1965 23.4866 15.7089 23.7938C14.9085 23.9555 15.2481 25.1844 16.0485 25.0227C17.4553 24.7317 18.8135 24.2223 20.0586 23.5028C20.6811 23.147 21.2713 22.7266 21.8292 22.282C22.3547 21.8615 22.9368 21.3926 23.2845 20.8024C23.6321 20.2122 23.6644 19.5088 23.1551 19.0237C22.6457 18.5387 21.7968 18.6438 21.142 18.7165C19.6948 18.8863 18.3203 19.3633 17.0187 20.0182C15.5068 20.7863 14.1243 21.7807 12.7822 22.8075C12.5073 23.0177 12.3699 23.3572 12.5558 23.6806C12.7094 23.9474 13.1541 24.1172 13.429 23.907V23.8989Z" fill="var(--fill-0, #D0CAA8)"/>
<path id="Vector_12" d="M29.332 18.959C28.766 18.9104 28.1111 19.0317 27.6746 19.4117C27.238 19.7917 27.1248 20.39 27.5129 20.8508C27.8767 21.2712 28.4669 21.5785 28.9358 21.8776C29.4775 22.2172 30.0273 22.5325 30.6013 22.8154C32.8165 23.9231 35.2016 24.6103 37.6594 24.8771C38.476 24.966 38.4679 23.6886 37.6594 23.5997C35.8484 23.4056 34.0535 22.9367 32.3719 22.2414C31.5553 21.9018 30.763 21.4976 30.003 21.0448C29.5988 20.8023 29.2026 20.5517 28.8145 20.2768C28.7579 20.2364 28.6205 20.0989 28.5558 20.0908C28.475 20.01 28.4669 20.0504 28.5316 20.204C28.5073 20.3495 28.5396 20.39 28.6286 20.3253C28.6933 20.3334 28.855 20.2525 28.9277 20.2444C29.0652 20.2283 29.1864 20.2444 29.3239 20.2444C30.1405 20.3172 30.1324 19.0398 29.3239 18.967L29.332 18.959Z" fill="var(--fill-0, #D0CAA8)"/>
<path id="Vector_13" d="M30.0839 20.188C31.5068 20.2527 32.8085 20.8995 34.0212 21.6029C35.0965 22.2335 36.6811 22.9207 36.8913 24.2951C36.9398 24.6347 37.3683 24.8207 37.6756 24.7398C38.0394 24.6428 38.1687 24.2951 38.1202 23.9556C37.8615 22.2497 36.1233 21.3522 34.7812 20.5599C33.334 19.711 31.7898 18.9834 30.0839 18.9025C29.2673 18.8621 29.2673 20.1395 30.0839 20.1799V20.188Z" fill="var(--fill-0, #D0CAA8)"/>
<path id="Vector_14" d="M8.42446 27.7715C9.12784 24.5537 10.3163 21.4652 11.9495 18.6032C12.3537 17.8917 11.2542 17.2449 10.8499 17.9564C9.16018 20.9074 7.9232 24.109 7.19556 27.4319C7.01769 28.2323 8.24659 28.5719 8.42446 27.7715Z" fill="var(--fill-0, #D0CAA8)"/>
<path id="Vector_15" d="M11.0035 18.2152C11.0035 19.0399 11.5694 20.1152 12.5558 19.6058C13.049 19.3471 13.3158 18.7326 13.5988 18.2799C13.9868 17.6574 14.3668 17.0348 14.7468 16.4123L13.8736 16.6387C14.6417 17.2127 15.62 17.0348 16.5093 16.9216C17.6008 16.7761 18.6922 16.574 19.7594 16.3072C21.8858 15.7736 23.9393 14.9974 25.9039 14.0192C26.6397 13.6553 25.9929 12.5558 25.2572 12.9196C23.5432 13.7766 21.7564 14.4557 19.905 14.957C19.0156 15.1995 18.1182 15.3936 17.2046 15.5472C16.4365 15.6766 15.1996 16.0565 14.5123 15.5472C14.2294 15.337 13.8009 15.5068 13.6392 15.7736C13.3077 16.3233 12.9681 16.8731 12.6286 17.4229C12.4992 17.6331 12.2001 17.9484 12.1516 18.191C11.9252 18.3931 11.9737 18.4982 12.2971 18.5144C12.2728 18.4173 12.2647 18.3203 12.2728 18.2233C12.2728 17.3986 10.9954 17.3986 10.9954 18.2233L11.0035 18.2152Z" fill="var(--fill-0, #D0CAA8)"/>
<path id="Vector_16" d="M26.4618 14.1241C30.0272 16.6143 34.5548 17.4794 38.7993 16.5496C39.5997 16.3717 39.2602 15.1428 38.4598 15.3207C34.5386 16.1777 30.3992 15.3126 27.1086 13.0165C26.4376 12.5476 25.7989 13.6552 26.4618 14.1161V14.1241Z" fill="var(--fill-0, #D0CAA8)"/>
<path id="Vector_17" d="M37.4169 16.4286C37.5624 19.9779 37.9424 24.1092 41.2814 26.1709C41.9848 26.6075 42.6235 25.4998 41.9282 25.0713C39.0258 23.2765 38.8236 19.4685 38.7024 16.4286C38.67 15.612 37.3926 15.6039 37.4249 16.4286H37.4169Z" fill="var(--fill-0, #D0CAA8)"/>
<path id="Vector_18" d="M40.7721 25.4673C40.7074 26.8336 40.8044 28.1919 41.0551 29.5421C41.1116 29.8735 41.5321 30.0838 41.8393 29.9867C42.195 29.8735 42.3486 29.5582 42.284 29.2025C42.0657 28.0059 41.9848 26.7366 42.0495 25.4673C42.0657 25.1358 41.7423 24.8124 41.4108 24.8286C41.0551 24.8447 40.7883 25.1116 40.7721 25.4673Z" fill="var(--fill-0, #D0CAA8)"/>
<path id="Vector_19" d="M5.04496 32.8648C6.88831 31.6279 8.8206 30.5121 10.8176 29.542C11.1248 29.3883 11.2137 28.9518 11.0439 28.6688C10.858 28.3535 10.478 28.2888 10.1708 28.4424C8.17381 29.4207 6.24152 30.5283 4.39817 31.7653C4.1152 31.9593 3.98584 32.3312 4.17179 32.6385C4.34158 32.9214 4.75391 33.0589 5.04496 32.8648Z" fill="var(--fill-0, #D0CAA8)"/>
<path id="Vector_20" d="M40.093 28.6933C40.8853 29.3239 41.5482 30.1001 42.2354 30.8277C42.9227 31.5554 43.6584 32.2749 44.4992 32.8489C44.7822 33.043 45.2026 32.9055 45.3724 32.6226C45.5583 32.3072 45.429 31.9434 45.146 31.7494C44.4103 31.2481 43.7311 30.5528 43.0844 29.8737C42.4376 29.1946 41.7584 28.4022 40.9904 27.7878C40.7236 27.5695 40.3517 27.521 40.0849 27.7878C39.8585 28.0142 39.8181 28.475 40.0849 28.6933H40.093Z" fill="var(--fill-0, #D0CAA8)"/>
<path id="Vector_21" d="M6.21728 33.0266C5.08539 32.1292 3.59778 31.3126 2.23143 32.2666C1.04295 33.0994 0.533605 34.7325 0.250635 36.0908C-0.339562 38.8962 -0.12127 43.3268 3.20162 44.3454C4.71349 44.8063 6.37089 44.0382 6.88832 42.5344C7.15512 41.7583 5.92622 41.4268 5.65942 42.1949C5.21475 43.4804 3.57352 43.3753 2.70035 42.6476C1.53613 41.6855 1.2855 40.02 1.27741 38.5971C1.26933 37.1742 1.51996 35.6057 2.18292 34.3121C2.43355 33.827 2.7812 33.2853 3.34714 33.1398C4.0667 32.9619 4.79434 33.5117 5.31985 33.9321C5.95856 34.4334 6.86407 33.536 6.22536 33.0266H6.21728Z" fill="var(--fill-0, #D0CAA8)"/>
<path id="Vector_22" d="M3.98587 37.3117C4.03438 37.2712 4.08289 37.2227 4.1314 37.1823L4.00204 37.2793C4.10714 37.1985 4.22033 37.1338 4.33352 37.0772L4.17991 37.1419C4.26884 37.1014 4.35777 37.0772 4.45479 37.061L4.28501 37.0853C4.36586 37.0772 4.45479 37.0691 4.53564 37.0853L4.36586 37.061C4.43862 37.0691 4.5033 37.0934 4.56798 37.1176L4.41437 37.0529C4.48713 37.0853 4.55181 37.1257 4.61649 37.1661L4.48713 37.0691C4.56798 37.1338 4.63266 37.1985 4.69734 37.2793L4.60032 37.15C4.67308 37.2389 4.72159 37.3359 4.7701 37.441L4.70542 37.2874C4.78627 37.4814 4.83478 37.6916 4.85904 37.8938L4.83478 37.724C4.83478 37.7806 4.85095 37.8372 4.85904 37.9019C4.87521 38.0716 4.91563 38.2252 5.04499 38.3546C5.15818 38.4678 5.33604 38.5486 5.49774 38.5406C5.65944 38.5325 5.83731 38.4759 5.95049 38.3546C6.0556 38.2414 6.15262 38.0716 6.13645 37.9019C6.09602 37.4976 6.03134 37.1338 5.86156 36.7619C5.71603 36.4547 5.47349 36.1798 5.18243 36.0019C4.83478 35.7917 4.42245 35.7513 4.03438 35.8402C3.67864 35.9291 3.35525 36.1393 3.08845 36.39C2.8459 36.6164 2.83782 37.061 3.08845 37.2955C3.34716 37.538 3.72715 37.538 3.99395 37.2955L3.98587 37.3117Z" fill="var(--fill-0, #D0CAA8)"/>
<path id="Vector_23" d="M43.9899 34.5548C44.3941 34.0617 44.863 33.4068 45.5341 33.3017C46.1566 33.2047 46.5528 33.8191 46.8196 34.288C47.4744 35.4199 47.62 36.7701 47.5715 38.0556C47.5229 39.2602 47.2723 40.5862 46.4396 41.5078C45.7362 42.284 44.5235 42.7772 43.5209 42.284C42.7852 41.9282 42.1384 43.0278 42.8741 43.3835C44.3132 44.0869 45.9949 43.6827 47.143 42.6074C48.4123 41.4189 48.8165 39.5594 48.8489 37.8858C48.8812 36.2122 48.5497 34.2719 47.4098 32.9055C46.8519 32.2345 46.0677 31.8707 45.1945 32.0647C44.3213 32.2587 43.6503 32.954 43.0843 33.6412C42.5669 34.2719 43.4643 35.1774 43.9899 34.5467V34.5548Z" fill="var(--fill-0, #D0CAA8)"/>
<path id="Vector_24" d="M44.7579 37.7565C44.7579 37.7565 44.7579 37.708 44.7579 37.6756L44.7337 37.8454C44.7337 37.8454 44.7417 37.7969 44.7579 37.7727L44.6932 37.9263C44.7094 37.8858 44.7337 37.8454 44.7579 37.8131L44.6609 37.9424C44.7579 37.8212 44.8873 37.7161 45.0085 37.619L44.8792 37.7161C45.0975 37.5463 45.34 37.4088 45.5906 37.3037L45.437 37.3684C45.623 37.2876 45.8089 37.231 46.0111 37.1905C46.3345 37.1178 46.5608 36.7216 46.4557 36.4063C46.3425 36.0667 46.0191 35.8808 45.6715 35.9616C45.243 36.0587 44.8226 36.2284 44.4588 36.471C44.2566 36.6003 44.0626 36.7459 43.8928 36.9076C43.6584 37.1178 43.4562 37.4331 43.4886 37.7646C43.5047 37.9343 43.5452 38.088 43.6745 38.2173C43.7877 38.3305 43.9656 38.4114 44.1273 38.4033C44.289 38.3952 44.4668 38.3386 44.58 38.2173C44.6851 38.096 44.7822 37.9343 44.766 37.7646L44.7579 37.7565Z" fill="var(--fill-0, #D0CAA8)"/>
<path id="Vector_25" d="M5.65942 33.1076C5.8292 35.525 5.99898 37.9504 6.16877 40.3678C6.20111 40.7801 6.54876 41.0954 6.97725 40.9823C7.69681 40.7963 8.49721 40.4729 8.73976 39.6968C8.89337 39.2278 8.80444 38.7104 8.7721 38.2253C8.73167 37.6836 8.69933 37.1339 8.65891 36.5922C8.5053 34.4173 8.35977 32.2425 8.20616 30.0596C8.14956 29.243 6.87215 29.243 6.92874 30.0596C7.0581 31.8949 7.18746 33.7301 7.30873 35.5735C7.37341 36.4547 7.43001 37.3441 7.49469 38.2253C7.51894 38.5245 7.67255 39.147 7.46235 39.4057C7.28448 39.6321 6.88832 39.6887 6.6296 39.7534L7.43809 40.3678C7.26831 37.9504 7.09853 35.525 6.92874 33.1076C6.87215 32.291 5.59474 32.291 5.65133 33.1076H5.65942Z" fill="var(--fill-0, #D0CAA8)"/>
<path id="Vector_26" d="M5.23899 30.8113C4.99645 28.2807 4.95602 25.7421 5.15006 23.2115C5.3441 20.6809 5.58664 17.8997 6.573 15.5713L5.40878 15.4177C5.70792 16.21 5.93429 17.0023 6.09599 17.827C6.24152 18.5627 7.30872 18.3444 7.34915 17.6572C7.50276 14.9083 8.6589 12.3858 10.3244 10.2191C11.1005 9.2004 11.9899 8.27064 12.9115 7.38939C13.3886 6.93664 13.8817 6.51622 14.4153 6.12006C14.8115 5.82092 14.7468 5.73199 14.6983 6.16049C14.6579 6.50005 14.6013 6.83962 14.5528 7.17918C14.4396 7.97959 15.6685 8.32724 15.7817 7.51875C15.911 6.62133 16.6063 4.19586 14.8519 4.50309C14.1404 4.63245 13.4775 5.20647 12.9358 5.65114C12.1597 6.28985 11.4401 7.01749 10.7529 7.75321C8.18997 10.5021 6.28194 13.8411 6.07174 17.6572L7.32489 17.4874C7.1632 16.6627 6.93682 15.8704 6.63768 15.0781C6.4679 14.6334 5.70792 14.3666 5.47345 14.9245C4.47901 17.2529 4.17987 19.929 3.93733 22.4354C3.67053 25.2246 3.69478 28.022 3.96158 30.8113C4.04243 31.6198 5.31984 31.6279 5.23899 30.8113Z" fill="var(--fill-0, #D0CAA8)"/>
<path id="Vector_27" d="M16.2264 6.96101C18.8378 4.38194 22.2254 2.9024 25.7099 1.90796C27.7635 1.31777 29.5341 0.994372 31.5149 2.01307C32.2264 2.37689 33.2612 2.85389 33.6331 3.5977C34.2395 4.78618 32.8004 5.49765 31.8949 5.78871C31.1187 6.03934 31.4502 7.27632 32.2344 7.01761C34.0374 6.4355 35.9939 4.72959 34.5952 2.73262C33.9889 1.86754 32.9378 1.29351 32.0162 0.832675C30.9004 0.282903 29.7039 -0.080917 28.4507 0.00801668C26.0819 0.177799 23.5998 1.13182 21.433 2.06158C19.2663 2.99134 17.0834 4.32534 15.329 6.05551C14.7468 6.62953 15.6443 7.53504 16.2345 6.96101H16.2264Z" fill="var(--fill-0, #D0CAA8)"/>
<path id="Vector_28" d="M33.2936 6.68601C34.7488 6.12816 36.4143 5.82093 37.9666 6.12007C39.5189 6.41921 40.6346 7.5511 41.3865 8.85276C42.9146 11.5046 42.6235 14.7466 41.1844 17.3661C40.7882 18.0857 41.8878 18.7325 42.2839 18.0129C43.9737 14.9407 44.2567 11.1165 42.389 8.04427C41.5159 6.61325 40.19 5.33584 38.5245 4.93968C36.7054 4.51118 34.6922 4.79415 32.9621 5.45711C32.2021 5.74817 32.5336 6.98515 33.3016 6.68601H33.2936Z" fill="var(--fill-0, #D0CAA8)"/>
<path id="Vector_29" d="M41.6129 18.3123C44.4669 21.5786 44.1839 26.2193 43.5371 30.2132C43.4077 31.0136 44.6367 31.3613 44.766 30.5528C45.4856 26.0576 45.7119 21.0611 42.5103 17.4068C41.9686 16.7842 41.0712 17.6897 41.6048 18.3123H41.6129Z" fill="var(--fill-0, #D0CAA8)"/>
<path id="Vector_30" d="M42.6558 32.4527H42.672C42.9226 32.291 43.0277 31.9999 42.9631 31.717C42.9226 31.5472 42.8014 31.3693 42.6397 31.2885C42.3729 31.1672 42.0899 31.1834 41.8635 31.3855C41.5967 31.6361 41.621 31.9999 41.5886 32.3314C41.5563 32.6467 41.532 32.9701 41.4997 33.2854C41.4431 33.9888 41.4027 34.6922 41.3946 35.3956C41.3946 36.0666 41.4108 36.7296 41.4997 37.3926C41.5725 37.9989 41.7018 38.5972 42.0737 39.0985C42.2597 39.3491 42.6478 39.5512 42.9469 39.3248C43.6907 38.7751 43.6907 37.8049 43.812 36.9641C43.9575 35.9777 44.0788 34.9913 44.1758 33.9969C44.2081 33.6573 43.8605 33.3582 43.5371 33.3582C43.1652 33.3582 42.9307 33.6493 42.8984 33.9969C42.8256 34.7811 42.7286 35.5735 42.6235 36.3496C42.5669 36.7377 42.5103 37.1177 42.4456 37.5057C42.4214 37.6594 42.3971 37.813 42.3648 37.9666C42.3486 38.0313 42.3325 38.0959 42.3082 38.1687C42.3001 38.2172 42.2031 38.29 42.292 38.2253L43.1652 38.4517C42.8984 38.0879 42.7933 37.6755 42.7448 37.2309C42.6801 36.6487 42.6558 36.0505 42.6639 35.4603C42.672 34.8701 42.6963 34.2799 42.7367 33.6897C42.7771 33.1561 42.7609 32.5578 42.8822 32.0323L42.7205 32.3153L42.7609 32.2829L41.9848 32.3799L42.0091 32.3961L41.718 32.0161V32.0484C41.8231 31.8059 41.9201 31.5714 42.0171 31.3289H42.001C41.2976 31.7574 41.9363 32.865 42.6478 32.4446L42.6558 32.4527Z" fill="var(--fill-0, #D0CAA8)"/>
<path id="Vector_31" d="M6.22539 40.8044C5.7888 43.4724 5.54626 46.1646 5.56243 48.8731C5.5786 51.2339 5.7888 53.6836 6.89643 55.8099C7.92321 57.7826 9.62912 59.3107 11.3835 60.6285C13.138 61.9463 15.24 63.1591 17.4391 63.8544C22.2577 65.3905 27.8605 64.6467 32.6953 63.5067C37.0854 62.4718 41.621 60.7255 43.8201 56.5052C46.4072 51.5411 45.3805 45.8332 44.3456 40.6022C44.1839 39.8018 42.955 40.1414 43.1167 40.9418C43.9818 45.2996 44.8792 49.9079 43.4078 54.2414C42.7286 56.2384 41.524 58.0494 39.7938 59.2864C38.0636 60.5234 35.8888 61.3076 33.8029 61.8978C29.4532 63.1186 24.4406 63.8948 19.9373 63.1348C15.8383 62.4395 11.6503 59.9574 9.03084 56.7154C7.37344 54.6699 6.92069 52.1394 6.85601 49.5765C6.78324 46.7548 7.00962 43.917 7.46237 41.1278C7.59173 40.3274 6.36283 39.9797 6.23347 40.7882L6.22539 40.8044Z" fill="var(--fill-0, #D0CAA8)"/>
<path id="Vector_32" d="M16.9944 51.5087C17.8353 54.007 20.1556 55.7452 22.7347 56.109C25.6614 56.5294 28.5316 55.2359 30.6417 53.2712C31.2481 52.7134 30.3426 51.816 29.7362 52.3657C27.9575 54.007 25.5482 55.155 23.0824 54.872C20.956 54.6295 18.9106 53.2227 18.2153 51.1611C17.9565 50.3849 16.7196 50.7164 16.9864 51.5006L16.9944 51.5087Z" fill="var(--fill-0, #D0CAA8)"/>
<path id="Vector_33" d="M15.7493 63.1349C15.911 65.4149 16.0727 67.6948 16.2263 69.9828C16.2506 70.3224 16.5012 70.6215 16.865 70.6215C17.1884 70.6215 17.528 70.3305 17.5038 69.9828C17.3421 67.7029 17.1804 65.4229 17.0267 63.1349C17.0025 62.7954 16.7519 62.4962 16.388 62.4962C16.0646 62.4962 15.7251 62.7873 15.7493 63.1349Z" fill="var(--fill-0, #D0CAA8)"/>
<path id="Vector_34" d="M32.5659 63.248C32.6063 65.439 32.4932 67.6381 32.2264 69.8129C32.1859 70.1525 32.5498 70.4516 32.8651 70.4516C33.2451 70.4516 33.4633 70.1606 33.5038 69.8129C33.7706 67.63 33.8838 65.439 33.8433 63.248C33.8272 62.4314 32.5498 62.4234 32.5659 63.248Z" fill="var(--fill-0, #D0CAA8)"/>
<path id="Vector_35" d="M16.3396 69.9263C18.377 72.2305 22.1203 72.8449 25.0308 72.9015C27.9414 72.9581 31.1511 72.5458 33.4633 70.5407C34.0859 69.999 33.1804 69.1016 32.5578 69.6352C30.5205 71.4058 27.618 71.6726 25.0308 71.6241C22.4437 71.5756 19.048 71.0743 17.237 69.0208C16.6953 68.4063 15.7898 69.3118 16.3315 69.9263H16.3396Z" fill="var(--fill-0, #D0CAA8)"/>
<path id="Vector_36" d="M16.4608 68.2283C14.1647 70.5487 11.6908 72.6831 9.047 74.6073C8.7236 74.8417 8.60233 75.2945 8.91764 75.6098C11.4401 78.0919 14.48 79.9514 17.8353 81.0833C18.1182 81.1803 18.3931 81.0105 18.5548 80.7922C20.4629 78.1161 22.5164 75.5532 24.6993 73.1035C25.241 72.489 24.3436 71.5835 23.7938 72.198C21.5381 74.7366 19.428 77.3885 17.4553 80.1454L18.1748 79.8544C15.0298 78.7952 12.1839 77.0408 9.81506 74.7124L9.6857 75.7149C12.4184 73.726 14.9813 71.535 17.3583 69.1338C17.9323 68.5517 17.0349 67.6462 16.4527 68.2283H16.4608Z" fill="var(--fill-0, #D0CAA8)"/>
<path id="Vector_37" d="M25.1359 73.063C26.575 75.6178 28.1031 78.116 29.72 80.5577C29.9141 80.8487 30.2779 80.9619 30.5932 80.784C33.5765 79.1752 36.5922 77.2833 38.3062 74.2434C38.7104 73.5319 37.6109 72.8851 37.2066 73.5966C35.5978 76.4344 32.7438 78.1646 29.9464 79.6764L30.8196 79.9028C29.2026 77.4612 27.6665 74.9629 26.2355 72.4081C25.8312 71.6966 24.7317 72.3354 25.1359 73.0549V73.063Z" fill="var(--fill-0, #D0CAA8)"/>
<path id="Vector_38" d="M32.8777 70.0254C34.366 71.7141 36.1358 73.1841 38.0907 74.3753C38.3803 74.5486 38.7906 74.428 38.9595 74.1642C39.1365 73.8777 39.0239 73.5234 38.7343 73.35C36.8598 72.2041 35.1946 70.7943 33.7706 69.181C33.5534 68.9323 33.1029 68.97 32.8696 69.181C32.6041 69.4298 32.6524 69.7766 32.8696 70.0254H32.8777Z" fill="var(--fill-0, #D0CAA8)"/>
<path id="Vector_39" d="M19.9212 78.9084C20.5841 79.4663 20.9641 80.0322 21.4007 80.768C21.8373 81.5037 22.2577 82.2313 22.8156 82.8781C23.0258 83.1207 23.4219 83.1126 23.6564 82.9266C23.907 82.7326 23.9798 82.3849 23.8181 82.102C23.7615 81.9969 23.7049 81.8998 23.6483 81.7947C23.4866 81.5037 23.0581 81.3824 22.7751 81.5684C22.4922 81.7543 22.3709 82.1262 22.5488 82.4415C22.6054 82.5466 22.6619 82.6436 22.7185 82.7487L23.7211 81.9726C23.5675 81.7947 23.5432 81.7543 23.4058 81.5764C23.2926 81.4147 23.1794 81.245 23.0743 81.0752C22.856 80.7275 22.6458 80.3637 22.4356 80.008C21.9909 79.2722 21.4816 78.5608 20.8186 78.0029C20.568 77.7846 20.1637 77.7361 19.9131 78.0029C19.6948 78.2374 19.6382 78.674 19.9131 78.9084H19.9212Z" fill="var(--fill-0, #D0CAA8)"/>
<path id="Vector_40" d="M23.0581 82.9104C23.7453 83.161 24.4568 83.4035 25.1925 83.4116C25.9282 83.4197 26.6155 83.2014 27.1733 82.7325C27.432 82.5142 27.4159 82.0534 27.1733 81.827C26.8984 81.5764 26.5427 81.5925 26.2678 81.827C26.2112 81.8755 26.2112 81.8755 26.2678 81.827C26.2355 81.8512 26.2112 81.8674 26.1789 81.8917C26.1304 81.924 26.0819 81.9483 26.0333 81.9725C26.001 81.9887 25.9687 82.0049 25.9363 82.021C26.001 81.9887 26.001 81.9887 25.9363 82.021C25.8797 82.0372 25.8312 82.0534 25.7746 82.0695C25.7019 82.0857 25.6291 82.1019 25.5563 82.1181C25.4108 82.1504 25.6453 82.1181 25.4997 82.1181C25.3542 82.1181 25.2168 82.1342 25.0793 82.1181C25.0066 82.1181 24.9338 82.11 24.8691 82.1019C24.9823 82.1181 24.7721 82.0857 24.7478 82.0776C24.5942 82.0453 24.4487 82.0129 24.3032 81.9725C23.996 81.8836 23.6968 81.7785 23.3977 81.6653C23.0824 81.5521 22.6862 81.7947 22.6134 82.11C22.5326 82.4657 22.7185 82.7729 23.0581 82.8942V82.9104Z" fill="var(--fill-0, #D0CAA8)"/>
<path id="Vector_41" d="M26.955 82.6517C27.715 81.0428 28.5477 79.4744 29.4533 77.9382C29.8737 77.2268 28.766 76.5881 28.3537 77.2915C27.4482 78.8276 26.6235 80.3961 25.8555 82.0049C25.71 82.3122 25.7665 82.6922 26.0819 82.8781C26.3567 83.0398 26.8095 82.959 26.955 82.6517Z" fill="var(--fill-0, #D0CAA8)"/>
<path id="Vector_42" d="M22.7509 82.6517C22.007 84.2929 21.2551 85.9341 20.5113 87.5673C20.3658 87.8826 20.4224 88.2545 20.7377 88.4404C21.0126 88.6021 21.4654 88.5294 21.6109 88.214C22.3547 86.5728 23.1066 84.9316 23.8504 83.2984C23.9959 82.9831 23.9393 82.6112 23.624 82.4253C23.3491 82.2636 22.8964 82.3363 22.7509 82.6517Z" fill="var(--fill-0, #D0CAA8)"/>
<path id="Vector_43" d="M26.4538 82.9832C26.955 84.1232 27.4644 85.2551 27.9656 86.395C28.1031 86.7023 28.572 86.7993 28.8388 86.6214C29.1541 86.4193 29.2107 86.0797 29.0652 85.7483C28.5639 84.6083 28.0546 83.4764 27.5533 82.3364C27.4159 82.0292 26.9469 81.9322 26.6801 82.1101C26.3648 82.3122 26.3082 82.6517 26.4538 82.9832Z" fill="var(--fill-0, #D0CAA8)"/>
</g>
<defs>
<clipPath id="clip0_1410_2313">
<rect width="48.8569" height="88.5214" fill="white"/>
</clipPath>
</defs>
</svg>
