<svg preserveAspectRatio="none" width="100%" height="100%" overflow="visible" style="display: block;" viewBox="0 0 14.3333 14.3333" fill="none" xmlns="http://www.w3.org/2000/svg">
<path id="clock" d="M7.16667 0C3.21467 0 0 3.21467 0 7.16667C0 11.1187 3.21467 14.3333 7.16667 14.3333C11.1187 14.3333 14.3333 11.1187 14.3333 7.16667C14.3333 3.21467 11.1187 0 7.16667 0ZM7.16667 13.3333C3.766 13.3333 1 10.5673 1 7.16667C1 3.766 3.766 1 7.16667 1C10.5673 1 13.3333 3.766 13.3333 7.16667C13.3333 10.5673 10.5673 13.3333 7.16667 13.3333ZM9.52002 8.81331C9.71535 9.00865 9.71535 9.32534 9.52002 9.52067C9.42269 9.618 9.29467 9.66732 9.16667 9.66732C9.03867 9.66732 8.91065 9.61867 8.81331 9.52067L6.81331 7.52067C6.71931 7.42667 6.66667 7.29932 6.66667 7.16732V3.83398C6.66667 3.55798 6.89067 3.33398 7.16667 3.33398C7.44267 3.33398 7.66667 3.55798 7.66667 3.83398V6.95996L9.52002 8.81331Z" fill="var(--fill-0, #6E767A)"/>
</svg>
