<svg preserveAspectRatio="none" width="100%" height="100%" overflow="visible" style="display: block;" viewBox="0 0 28 28" fill="none" xmlns="http://www.w3.org/2000/svg">
<g id="iconamoon:heart-fill">
<g id="Vector">
<g filter="url(#filter0_i_1410_2264)">
<path fill-rule="evenodd" clip-rule="evenodd" d="M4.92574 6.25806C6.10569 5.07785 7.66847 4.35803 9.33231 4.22839C10.9962 4.09876 12.6516 4.56784 14.0001 5.55106C15.4249 4.52022 17.1853 4.06323 18.9316 4.27091C20.6779 4.4786 22.2821 5.33575 23.4254 6.67201C24.5686 8.00826 25.1672 9.72577 25.1022 11.4832C25.0372 13.2405 24.3133 14.9091 23.0744 16.1572L16.4746 22.7571C15.8182 23.4132 14.9281 23.7818 14.0001 23.7818C13.072 23.7818 12.1819 23.4132 11.5256 22.7571L4.92574 16.1584C3.61309 14.8457 2.87565 13.0652 2.87565 11.2088C2.87565 9.35237 3.61309 7.5708 4.92574 6.25806Z" fill="url(#paint0_linear_1410_2264)"/>
</g>
<path d="M9.3776 4.80977C10.9027 4.69095 12.4198 5.12148 13.6559 6.02266L13.9987 6.27169L14.3424 6.02364C15.6485 5.07883 17.2623 4.65944 18.863 4.84981C20.4636 5.04023 21.9341 5.82618 22.9821 7.05098C24.03 8.27581 24.5787 9.85031 24.5192 11.4611C24.4596 13.0713 23.7964 14.6004 22.6618 15.7443L16.0622 22.3449C15.5152 22.8916 14.773 23.1984 13.9997 23.1984C13.2266 23.1983 12.485 22.8914 11.9382 22.3449L5.33854 15.7463C4.13536 14.543 3.45876 12.9108 3.45866 11.2092C3.45866 9.50735 4.13535 7.8734 5.33854 6.67013C6.42012 5.58845 7.85257 4.92859 9.3776 4.80977Z" stroke="var(--stroke-0, #FFD100)" stroke-width="1.16667"/>
</g>
</g>
<defs>
<filter id="filter0_i_1410_2264" x="2.87565" y="4.20723" width="22.2313" height="24.2412" filterUnits="userSpaceOnUse" color-interpolation-filters="sRGB">
<feFlood flood-opacity="0" result="BackgroundImageFix"/>
<feBlend mode="normal" in="SourceGraphic" in2="BackgroundImageFix" result="shape"/>
<feColorMatrix in="SourceAlpha" type="matrix" values="0 0 0 0 0 0 0 0 0 0 0 0 0 0 0 0 0 0 127 0" result="hardAlpha"/>
<feOffset dy="4.66667"/>
<feGaussianBlur stdDeviation="2.33333"/>
<feComposite in2="hardAlpha" operator="arithmetic" k2="-1" k3="1"/>
<feColorMatrix type="matrix" values="0 0 0 0 1 0 0 0 0 1 0 0 0 0 1 0 0 0 0.39 0"/>
<feBlend mode="normal" in2="shape" result="effect1_innerShadow_1410_2264"/>
</filter>
<linearGradient id="paint0_linear_1410_2264" x1="14" y1="-1.00004" x2="14.0001" y2="24.5" gradientUnits="userSpaceOnUse">
<stop stop-color="#FFF2B9"/>
<stop offset="1" stop-color="#FFD000"/>
</linearGradient>
</defs>
</svg>
