<svg preserveAspectRatio="none" width="100%" height="100%" overflow="visible" style="display: block;" viewBox="0 0 15.8463 10.9665" fill="none" xmlns="http://www.w3.org/2000/svg">
<path id="Vector" fill-rule="evenodd" clip-rule="evenodd" d="M9.61196 0.166813C7.64081 -0.039064 5.65439 -0.0544127 3.68029 0.12098L2.36196 0.23848C1.83295 0.285925 1.33536 0.510246 0.949508 0.875236C0.563653 1.24023 0.312044 1.72459 0.235294 2.25015C-0.0784314 4.39429 -0.0784314 6.57267 0.235294 8.71681C0.312221 9.24244 0.563994 9.72682 0.949989 10.0918C1.33598 10.4568 1.83369 10.6811 2.36279 10.7285L3.68113 10.8451C5.6552 11.0208 7.64161 11.0057 9.61279 10.8001L10.1195 10.7468C10.6224 10.694 11.0953 10.4819 11.469 10.1412C11.8428 9.80059 12.0979 9.34937 12.197 8.85348L14.7361 10.2018C14.8273 10.2502 14.929 10.2753 15.0322 10.2749C15.1355 10.2744 15.237 10.2483 15.3277 10.1991C15.4184 10.1498 15.4955 10.0788 15.5521 9.99248C15.6086 9.90615 15.643 9.80715 15.652 9.70431L15.6728 9.46765C15.9042 6.8163 15.9042 4.14983 15.6728 1.49848L15.652 1.26181C15.6429 1.15894 15.6085 1.05991 15.5518 0.973578C15.4951 0.887251 15.4179 0.816316 15.3271 0.767117C15.2363 0.717917 15.1347 0.691987 15.0314 0.691643C14.9282 0.691299 14.8264 0.716553 14.7353 0.765147L12.197 2.11348C12.0979 1.61759 11.8428 1.16637 11.469 0.825738C11.0953 0.485107 10.6224 0.272911 10.1195 0.220147L9.61196 0.166813ZM3.79196 1.36598C5.68532 1.19685 7.59062 1.21164 9.48113 1.41015L9.98779 1.46348C10.2354 1.48969 10.4672 1.59751 10.6467 1.76996C10.8262 1.94241 10.9433 2.16968 10.9795 2.41598C11.2778 4.45015 11.2778 6.51598 10.9795 8.55098C10.9433 8.79728 10.8262 9.02455 10.6467 9.197C10.4672 9.36945 10.2354 9.47727 9.98779 9.50348L9.48113 9.55681C7.59062 9.75532 5.68532 9.77011 3.79196 9.60098L2.47363 9.48265C2.22447 9.46042 1.99006 9.35493 1.80819 9.18318C1.62632 9.01144 1.50758 8.78345 1.47113 8.53598C1.17493 6.51176 1.17493 4.4552 1.47113 2.43098C1.50727 2.18329 1.62589 1.95504 1.8078 1.7831C1.98972 1.61117 2.2243 1.50561 2.47363 1.48348L3.79196 1.36598ZM12.3603 3.44181C12.4845 4.80015 12.4845 6.16681 12.3603 7.52515L14.4828 8.65265C14.6346 6.5426 14.6346 4.42436 14.4828 2.31431L12.3603 3.44181Z" fill="var(--fill-0, white)"/>
</svg>
