<svg width="66" height="80" viewBox="0 0 66 80" fill="none" xmlns="http://www.w3.org/2000/svg">
<g clip-path="url(#clip0_372_583)">
<path d="M57.6491 21.2382C53.0467 21.2382 49.2983 25.0257 49.2983 29.676V48.0857C49.2983 48.4692 49.2983 48.7569 49.1559 49.0445C49.1559 50.9622 48.9662 52.784 48.3019 54.414L48.3968 54.5099L48.3019 54.6058C48.3019 54.6058 48.3019 54.8935 48.207 54.9893C48.0646 55.9002 47.6851 56.8111 47.4004 57.6261C47.4004 57.6261 47.3371 57.6901 47.2106 57.8179C47.2106 57.8179 47.2106 58.1056 47.0682 58.2014C46.4989 59.4 45.7871 60.5506 44.9805 61.6053C44.8856 62.0368 44.5061 62.3244 44.1265 62.6121C43.7943 63.1395 43.225 63.7148 42.703 64.2421C42.2286 64.6257 41.7066 65.0092 41.2322 65.3927C39.1444 66.9269 37.9583 69.4678 37.9583 72.0566V79.1521C39.8562 78.7685 41.7066 78.337 43.3199 77.6659C44.2214 77.3782 45.1229 77.0426 46.0718 76.6591C52.3824 74.0223 57.4119 70.3307 60.923 65.3927C64.2918 60.5027 65.9999 54.8455 65.9999 48.1336V29.6281C65.9999 24.9777 62.2516 21.1903 57.6491 21.1903V21.2382Z" fill="#F0C400"/>
<path d="M8.35083 21.2383C3.74838 21.2383 0 25.0257 0 29.6761V48.1816C0 54.8935 1.70812 60.5506 5.07692 65.4407C8.58807 70.3787 13.6175 74.0702 19.9281 76.707C20.8771 77.0906 21.7786 77.4262 22.6801 77.7138C24.2933 78.385 26.1438 78.8165 28.0417 79.2V72.1046C28.0417 69.4678 26.9029 66.9748 24.7678 65.4407C24.2459 65.0572 23.7714 64.6736 23.2969 64.2901C22.775 63.7627 22.2056 63.1874 21.8735 62.6601C21.4939 62.3724 21.1143 62.0848 21.0194 61.7012C20.2128 60.5986 19.5011 59.448 18.9317 58.2494C18.7894 58.1535 18.7894 57.9618 18.7894 57.8659C18.7894 57.8659 18.7261 57.802 18.5996 57.6741C18.3149 56.8591 17.9353 55.9482 17.793 55.0373C17.6981 54.9414 17.6032 54.7497 17.6981 54.6538L17.6032 54.5579L17.6981 54.462C17.0338 52.832 16.844 51.0102 16.844 49.0925C16.7017 48.8049 16.7017 48.5172 16.7017 48.1337V29.724C16.7017 25.0736 12.9533 21.2862 8.35083 21.2862V21.2383Z" fill="#263238"/>
<path d="M9.20498 16.492C13.7122 16.492 17.366 12.8001 17.366 8.24601C17.366 3.69186 13.7122 0 9.20498 0C4.69777 0 1.04395 3.69186 1.04395 8.24601C1.04395 12.8001 4.69777 16.492 9.20498 16.492Z" fill="#263238"/>
<path d="M57.839 16.492C62.3462 16.492 66 12.8001 66 8.24601C66 3.69186 62.3462 0 57.839 0C53.3318 0 49.678 3.69186 49.678 8.24601C49.678 12.8001 53.3318 16.492 57.839 16.492Z" fill="#F0C400"/>
</g>
<defs>
<clipPath id="clip0_372_583">
<rect width="66" height="79.2" fill="white"/>
</clipPath>
</defs>
</svg>
